<svg xmlns="http://www.w3.org/2000/svg" width="41.056" height="52.615" viewBox="0 0 41.056 52.615"><defs><style>.a{fill:none;stroke:#b65490;stroke-width:3px;}</style></defs><g transform="translate(-361.523 -4.133)"><path class="a" d="M3501.7,576.86s-3.574,2.146-7.028,4.672a82.451,82.451,0,0,0-6.788,5.431c-2.706,2.316-2.207,1.637-4.033,3.833a26.415,26.415,0,0,0-3.274,4.951,24.317,24.317,0,0,0-2.716,5.071,12.356,12.356,0,0,0-1.13,4.8,21.336,21.336,0,0,0,0,5.129,8.664,8.664,0,0,0,.515,3.236,12.369,12.369,0,0,0,1.324,2.96,9.32,9.32,0,0,0,.932,1.465c.29.047-.207-1.517-.4-3.377a30.425,30.425,0,0,1-.368-4.063,10.847,10.847,0,0,1,.368-3.015,18.44,18.44,0,0,1,.644-2.978,8.745,8.745,0,0,1,.831-1.975,21.236,21.236,0,0,1,1.22-2.583c.672-1.159.69-.887,1.468-2.055s.712-1.348,1.644-2.617a17.347,17.347,0,0,1,2.084-2.461c1.167-1.238,1.444-1.407,2.583-2.491a18.345,18.345,0,0,1,1.974-1.844,7.078,7.078,0,0,1,1.846-1.084c.983-.5,2.087-.905,2.087-.905a44,44,0,0,0,1.083,6.083c.522,1.686.682,1.207,1.325,3.05a30.14,30.14,0,0,1,1.244,4.324,14.44,14.44,0,0,1,.522,3.5,33.252,33.252,0,0,1,0,3.853,8.022,8.022,0,0,1-.241,2.974,10.9,10.9,0,0,1-1.525,3.528,17.6,17.6,0,0,1-2.408,3.412,17.247,17.247,0,0,1-2.729,2.93,13.707,13.707,0,0,1-2.649,1.846l-1.2.865L3485.938,625a11.4,11.4,0,0,0,3.529-.858,16.073,16.073,0,0,0,4.112-2.315,29.82,29.82,0,0,0,4.31-3.416c1.77-1.6,1.458-.951,2.772-2.982a14.016,14.016,0,0,0,2.484-5.14c.685-2.527.139-2.795.257-4.968s.393-1.741.214-3.726-.427-1.758-.925-4.214-.618-3.231-1.068-5.609a23.38,23.38,0,0,1-.73-3.9,20.015,20.015,0,0,1,0-4.808C3501.094,580.308,3501.7,576.86,3501.7,576.86Z" transform="translate(-3113.57 -569.749)"/><path class="a" d="M3538.643,650.987a3.154,3.154,0,0,1,.51,1.106,5.192,5.192,0,0,0,.2,1.517c.281.628.9.661.912,1.064s-.851.548-.851.548,1.021-.028,1.163.388-.34.567-.6,1.276a12.775,12.775,0,0,0-.426,1.56,8.147,8.147,0,0,0,0,1.333c.064.638-.063.957.256,1.22s.5-.128,1.021-.17.674-.17,1.05,0,.378.156.454.681-.343,1.092-.152,1.419.566-.172.918-.114.44.1.49.346-.5.367-.29.653.7.2,1.132.494.432.261.609.682-.142.584.1,1a1.208,1.208,0,0,0,.871.668c.494.167.5,0,1.1,0s.643.167,1.306,0a3.678,3.678,0,0,0,1.35-.668c.49-.312.387-.25.609-.581s.238.008.283-.742-.1-1.2-.1-2.257.168-.935.1-1.954a14,14,0,0,0-.371-2.122,6.7,6.7,0,0,0-.521-1.667c-.324-.994-.367-1.077-.775-2.308s-.6-1.234-.994-2.547-.249-1.555-.586-2.7a13.041,13.041,0,0,1-.495-2.472,11.675,11.675,0,0,1-.135-1.843l-2.106,1.21-1.877,1.3-2.021,1.8Z" transform="translate(-3165.395 -626.469)"/><path class="a" d="M3630.373,579.581l-.37,3.814-.407,3.369.592,3.036.518,3.147.74,2.666.592,3.443.555,4.036v5.554l.926,1.037,1.74-1.222a7.151,7.151,0,0,1,2-1.037c.963-.259.963.306,1.852,0a3.318,3.318,0,0,0,1.7-1.222,2.93,2.93,0,0,0,.963-1.592,1.832,1.832,0,0,0,0-1.518c-.195-.583-.657-.222-.777-.814a2.207,2.207,0,0,1,.3-1.555c.269-.546.657-.341.778-.629s-.051-.332-.3-.524-.513-.049-.684-.246-.142-.3,0-.543.456-.213.569-.44.026-.226-.117-.466-.262-.184-.453-.491a1.368,1.368,0,0,1-.311-.737c-.023-.32.013-.285.217-.543s.264-.222.6-.49.553-.247.737-.583,0-.42,0-.763.087-.353,0-.608a.9.9,0,0,0-.349-.414,1.851,1.851,0,0,1-.776-.3c-.549-.3-.614-.41-1.422-.918a18.782,18.782,0,0,1-1.811-1.112c-.6-.472-.436-.37-.582-.776a1.047,1.047,0,0,1,0-.849c.095-.391.284-.288.379-.715a3.154,3.154,0,0,0,0-1l-.778-1.089-.871-1.12a12.527,12.527,0,0,0-1.266-1.978c-.651-.773-.963-.621-1.34-1.114s-.127-.394-.169-.859.213-.612,0-1a1.564,1.564,0,0,0-.854-.558,2.922,2.922,0,0,0-.919-.281A6.138,6.138,0,0,0,3630.373,579.581Z" transform="translate(-3241.333 -571.995)"/></g></svg>