<svg xmlns="http://www.w3.org/2000/svg" width="74.74" height="164.088" viewBox="0 0 74.74 164.088">
  <g id="Group_130" data-name="Group 130" transform="translate(3359.478 18707.574)">
    <path id="Path_84" data-name="Path 84" d="M-3250-18625.535a29.791,29.791,0,0,1,2.959-6.453c1.554-2.879,2.058-.762,3.256-5.039s.2-7.219,1.532-12.07a17.808,17.808,0,0,1,3.778-7.348s.6-8.648.806-11.535-.117-7.625,0-10.168,2.95-5.285,3.933-7.055,7.047-1.145,9.4-1.535,2.916-4.18,3.888-5.566-1.378-3.57-1.837-4.906-.576-1.789-.769-2.391c-.138-.43-.006.879-.438,1a1.12,1.12,0,0,1-1.294-.539c-.411-.574-.218-1.4-.351-1.766a9.471,9.471,0,0,1-.324-1.9c0-.277-.169-.477,0-.707s.229-.258.675-.207a1.909,1.909,0,0,1,1.078.555,5.274,5.274,0,0,1,.216-3.605c.814-2.07.83-3.121,3.044-4.676a6.036,6.036,0,0,1,2.665-1.281,5.686,5.686,0,0,1,3.145-.281c2.9.359,4.042.57,5.784,3.027s1.188,6.816,1.188,6.816,1.205-.422,1.513,0-.287,1.668-.287,1.668v1.9c0,.742-1.226.457-1.226.457a17.979,17.979,0,0,1-1.624,4.191c-.871,1.27-.381,2-1.549,4.434s-3.011,5.02-3.8,7.934-1.959,3.57-2.929,9.164-1.228,6.152-1.542,9.875.218,7.1,1.542,13.73,2.818,9.594,3.758,12.789,6.144,12.223,6.144,12.223l7.382,14.363s-1.578,10.1-2.105,13.465a31.079,31.079,0,0,0,0,7.434s1.782,5.324,1.4,7.012-.791,6.543-2.259,10.6a55.728,55.728,0,0,1-3.169,7.148v6.129a2.445,2.445,0,0,1,1.086,3.09c-.758,2.164-4.117,5.559-4.117,5.559h-4.364s-1.187-.582-1.3-1.52a4.141,4.141,0,0,1,.839-2.234l1.642-6.863s.889-12.672,1.186-16.895-1.381-3.117-1.186-5.672a8.7,8.7,0,0,1,1.965-4.555l-1.965-9.23-1.642-21.809s-1.08-1.16-1.44-1.543-1.393,5.227-1.393,5.227-2.091,25.7-2.892,26.594,1.187,1.1,1.408,3.32-.166,2.871-.519,5.586-.89,5.262-.89,5.262l.89,9.555.519,6.746,1.979,5.746-.5,2.285-9.646-.551a1.629,1.629,0,0,1-.7-1.734c.3-1.1,1.119-.82,1.912-2.66s1.115-1.9,1.262-4.707a27.822,27.822,0,0,0-.579-6.012c-.046-.234.55,1.09-.1-.473s-1.358-2.672-2.5-5.789-1.542-3.148-2.056-6.687a31.751,31.751,0,0,1,0-7.469l1.533-5.762s1.081-.328,0-6.508-3.244-11.129-4.325-18.227,0-10.176,0-10.176,2.094-2.68,2.792-11.582a170.218,170.218,0,0,0,0-24.02c-.419-5.1-1.673,3.633-1.673,3.633a27.069,27.069,0,0,1,0,7.352,20.938,20.938,0,0,1-2.349,6.371,27.12,27.12,0,0,0-5.407,10.953c-1.351,6.324.186,10.52,0,14.34s-1.239-1.09-1.157-.613-.626-2.586-.626-2.586a21.341,21.341,0,0,1-.84,4.648c-.551,1.16-1.024,1.289-1.365,0a25.2,25.2,0,0,1,0-5.168,29.7,29.7,0,0,1-1.6,5.168c-.732,1.289-1,1.16-1.327,0a20.994,20.994,0,0,1,0-4.648,16.894,16.894,0,0,1-1.63,4.129c-.806,1.035-1.894,2-1.595,0s2.791-7.977,2.791-7.977-1.864,2.2-2.791,2.508S-3250.515-18623.6-3250-18625.535Z" transform="translate(-108.791 5.998)" fill="rgba(237,153,226,0.39)" stroke="rgba(187,55,125,0.91)" stroke-width="1"/>
    <path id="Path_85" data-name="Path 85" d="M-3272.3-18692.391a53.4,53.4,0,0,0-9.895,8.965c-4.616,5.461-5.245,5.945-8.573,12.871s-3.554,7.426-4.738,14.816a52.651,52.651,0,0,0,0,14.727,133.316,133.316,0,0,0,5.72,18.09c3.457,8.313,4.322,7.625,8.108,15.176s4.249,7.84,7.033,15.012,3.076,7.125,4.1,13.656.533,7.262,0,12.492a26.381,26.381,0,0,1-2.13,8.418l-5.654,11.258-6.638,8.754,9.762-8.754,6.318-8.082a40.147,40.147,0,0,0,4.163-7.973c1.751-4.574,2.131-3.969,2.842-10.316s.889-7.687,0-15.086-1-7.516-3.556-14.512-2.97-6.184-6.652-13.484-4.978-9.051-8.079-15.723-2.726-5.738-4.323-10.973-1.55-4.926-2.066-9.965a33.789,33.789,0,0,1,0-10.2c.517-4.645.848-4.883,2.066-8.387s1.522-2.969,2.813-5.621,2.347-4.992,2.347-4.992-1.231,1.785.526-.758S-3272.3-18692.391-3272.3-18692.391Z" transform="translate(-30.269 -7.078)" fill="#770042" stroke="#770042" stroke-width="1"/>
    <g id="Ellipse_45" data-name="Ellipse 45" transform="translate(-3301.364 -18697.012)" fill="rgba(187,55,125,0.91)" stroke="#770042" stroke-width="1">
      <ellipse cx="1.663" cy="2.217" rx="1.663" ry="2.217" stroke="none"/>
      <ellipse cx="1.663" cy="2.217" rx="1.163" ry="1.717" fill="none"/>
    </g>
    <g id="Ellipse_46" data-name="Ellipse 46" transform="translate(-3305.797 -18692.578)" fill="rgba(187,55,125,0.91)" stroke="#770042" stroke-width="1">
      <ellipse cx="1.663" cy="2.217" rx="1.663" ry="2.217" stroke="none"/>
      <ellipse cx="1.663" cy="2.217" rx="1.163" ry="1.717" fill="none"/>
    </g>
    <g id="Ellipse_47" data-name="Ellipse 47" transform="translate(-3309.123 -18687.037)" fill="rgba(187,55,125,0.91)" stroke="#770042" stroke-width="1">
      <ellipse cx="1.663" cy="2.217" rx="1.663" ry="2.217" stroke="none"/>
      <ellipse cx="1.663" cy="2.217" rx="1.163" ry="1.717" fill="none"/>
    </g>
    <g id="Ellipse_48" data-name="Ellipse 48" transform="translate(-3311.339 -18679.275)" fill="rgba(187,55,125,0.91)" stroke="#770042" stroke-width="1">
      <ellipse cx="1.663" cy="2.217" rx="1.663" ry="2.217" stroke="none"/>
      <ellipse cx="1.663" cy="2.217" rx="1.163" ry="1.717" fill="none"/>
    </g>
    <g id="Ellipse_49" data-name="Ellipse 49" transform="translate(-3312.448 -18670.41)" fill="rgba(187,55,125,0.91)" stroke="#770042" stroke-width="1">
      <circle cx="1.663" cy="1.663" r="1.663" stroke="none"/>
      <circle cx="1.663" cy="1.663" r="1.163" fill="none"/>
    </g>
    <g id="Ellipse_50" data-name="Ellipse 50" transform="translate(-3312.448 -18662.656)" fill="rgba(187,55,125,0.91)" stroke="#770042" stroke-width="1">
      <ellipse cx="1.663" cy="2.217" rx="1.663" ry="2.217" stroke="none"/>
      <ellipse cx="1.663" cy="2.217" rx="1.163" ry="1.717" fill="none"/>
    </g>
    <g id="Ellipse_51" data-name="Ellipse 51" transform="translate(-3311.339 -18653.785)" fill="rgba(187,55,125,0.91)" stroke="#770042" stroke-width="1">
      <ellipse cx="1.663" cy="2.217" rx="1.663" ry="2.217" stroke="none"/>
      <ellipse cx="1.663" cy="2.217" rx="1.163" ry="1.717" fill="none"/>
    </g>
    <g id="Ellipse_52" data-name="Ellipse 52" transform="translate(-3309.123 -18646.023)" fill="rgba(187,55,125,0.91)" stroke="#770042" stroke-width="1">
      <circle cx="2.217" cy="2.217" r="2.217" stroke="none"/>
      <circle cx="2.217" cy="2.217" r="1.717" fill="none"/>
    </g>
    <g id="Ellipse_53" data-name="Ellipse 53" transform="translate(-3299.147 -18626.074)" fill="rgba(187,55,125,0.91)" stroke="#770042" stroke-width="1">
      <ellipse cx="2.217" cy="1.663" rx="2.217" ry="1.663" stroke="none"/>
      <ellipse cx="2.217" cy="1.663" rx="1.717" ry="1.163" fill="none"/>
    </g>
    <g id="Ellipse_55" data-name="Ellipse 55" transform="translate(-3293.605 -18617.211)" fill="rgba(187,55,125,0.91)" stroke="#770042" stroke-width="1">
      <ellipse cx="1.663" cy="2.217" rx="1.663" ry="2.217" stroke="none"/>
      <ellipse cx="1.663" cy="2.217" rx="1.163" ry="1.717" fill="none"/>
    </g>
    <g id="Ellipse_56" data-name="Ellipse 56" transform="translate(-3290.281 -18607.23)" fill="rgba(187,55,125,0.91)" stroke="#770042" stroke-width="1">
      <circle cx="2.217" cy="2.217" r="2.217" stroke="none"/>
      <circle cx="2.217" cy="2.217" r="1.717" fill="none"/>
    </g>
    <g id="Ellipse_57" data-name="Ellipse 57" transform="translate(-3288.063 -18597.256)" fill="rgba(187,55,125,0.91)" stroke="#770042" stroke-width="1">
      <ellipse cx="1.663" cy="2.217" rx="1.663" ry="2.217" stroke="none"/>
      <ellipse cx="1.663" cy="2.217" rx="1.163" ry="1.717" fill="none"/>
    </g>
    <g id="Ellipse_58" data-name="Ellipse 58" transform="translate(-3289.172 -18587.281)" fill="rgba(187,55,125,0.91)" stroke="#770042" stroke-width="1">
      <circle cx="2.217" cy="2.217" r="2.217" stroke="none"/>
      <circle cx="2.217" cy="2.217" r="1.717" fill="none"/>
    </g>
    <g id="Ellipse_59" data-name="Ellipse 59" transform="translate(-3291.388 -18576.197)" fill="rgba(187,55,125,0.91)" stroke="#770042" stroke-width="1">
      <circle cx="1.663" cy="1.663" r="1.663" stroke="none"/>
      <circle cx="1.663" cy="1.663" r="1.163" fill="none"/>
    </g>
    <g id="Ellipse_60" data-name="Ellipse 60" transform="translate(-3294.714 -18567.332)" fill="rgba(187,55,125,0.91)" stroke="#770042" stroke-width="1">
      <circle cx="1.663" cy="1.663" r="1.663" stroke="none"/>
      <circle cx="1.663" cy="1.663" r="1.163" fill="none"/>
    </g>
    <g id="Ellipse_61" data-name="Ellipse 61" transform="translate(-3300.256 -18559.572)" fill="rgba(187,55,125,0.91)" stroke="#770042" stroke-width="1">
      <ellipse cx="1.663" cy="2.217" rx="1.663" ry="2.217" stroke="none"/>
      <ellipse cx="1.663" cy="2.217" rx="1.163" ry="1.717" fill="none"/>
    </g>
    <g id="Ellipse_62" data-name="Ellipse 62" transform="translate(-3306.906 -18551.816)" fill="rgba(187,55,125,0.91)" stroke="#770042" stroke-width="1">
      <circle cx="2.217" cy="2.217" r="2.217" stroke="none"/>
      <circle cx="2.217" cy="2.217" r="1.717" fill="none"/>
    </g>
    <g id="Ellipse_54" data-name="Ellipse 54" transform="translate(-3303.581 -18634.939)" fill="rgba(187,55,125,0.91)" stroke="#770042" stroke-width="1">
      <circle cx="1.663" cy="1.663" r="1.663" stroke="none"/>
      <circle cx="1.663" cy="1.663" r="1.163" fill="none"/>
    </g>
  </g>
</svg>
