<svg xmlns="http://www.w3.org/2000/svg" width="32" height="33" viewBox="0 0 32 33"><defs><style>.a,.b,.e{fill:none;}.b{stroke:#fff;stroke-width:3px;}.c,.d{stroke:none;}.d{fill:#fff;}</style></defs><g transform="translate(0.319)"><g class="a" transform="translate(-0.319 15)"><path class="c" d="M32,18H0c0-.018,0-.035,0-.053v-.036a19.65,19.65,0,0,1,1.257-6.972A18.68,18.68,0,0,1,2.733,7.9,17.765,17.765,0,0,1,4.686,5.246,16.665,16.665,0,0,1,7.054,3.059,15.551,15.551,0,0,1,9.772,1.408a14.482,14.482,0,0,1,12.456,0,15.551,15.551,0,0,1,2.718,1.651,16.666,16.666,0,0,1,2.368,2.187A17.764,17.764,0,0,1,29.267,7.9a18.68,18.68,0,0,1,1.475,3.042A19.651,19.651,0,0,1,32,17.911c0,.03,0,.059,0,.089Z"/><path class="d" d="M 28.7530345916748 15 C 28.5755500793457 13.97238540649414 28.3028507232666 12.96975421905518 27.936279296875 11.99956035614014 C 27.59939002990723 11.10793018341064 27.18309020996094 10.24909019470215 26.69893074035645 9.446869850158691 C 26.22258949279785 8.657560348510742 25.67667961120605 7.916609764099121 25.07637977600098 7.244609832763672 C 24.48151016235352 6.578690052032471 23.82871055603027 5.975460052490234 23.1361198425293 5.451680183410645 C 22.44432067871094 4.928490161895752 21.70680999755859 4.480100154876709 20.94407081604004 4.118959903717041 C 19.37593078613281 3.37647008895874 17.71248054504395 3 15.9999303817749 3 C 14.28742027282715 3 12.62399959564209 3.37647008895874 11.05587005615234 4.118949890136719 C 10.29316997528076 4.480080127716064 9.555669784545898 4.928470134735107 8.863840103149414 5.451690196990967 C 8.171270370483398 5.975460052490234 7.518479824066162 6.578690052032471 6.923610210418701 7.244609832763672 C 6.323349952697754 7.916550159454346 5.777450084686279 8.657500267028809 5.301050186157227 9.446889877319336 C 4.816919803619385 10.24909019470215 4.400619983673096 11.10793972015381 4.063720226287842 11.99954986572266 C 3.697148561477661 12.96974945068359 3.424408674240112 13.97261810302734 3.246925354003906 15 L 28.7530345916748 15 M 31.99980926513672 18 L 0.000199999994947575 18 C 5.999999848427251e-05 17.98233985900879 3.999999898951501e-05 17.96467971801758 1.99999994947575e-05 17.9470100402832 L 0 17.91098022460938 C 0 15.49300956726074 0.4230400025844574 13.14737033843994 1.257359981536865 10.93920993804932 C 1.658360004425049 9.8779296875 2.154680013656616 8.854310035705566 2.7325599193573 7.896780014038086 C 3.304939985275269 6.948349952697754 3.962270021438599 6.05649995803833 4.686299800872803 5.245999813079834 C 5.410329818725586 4.435490131378174 6.207029819488525 3.699640035629272 7.05424976348877 3.058909893035889 C 7.909599781036377 2.412029981613159 8.824000358581543 1.856420040130615 9.772060394287109 1.407529950141907 C 11.74460983276367 0.4735600054264069 13.83996963500977 0 15.9999303817749 0 C 18.1599292755127 0 20.25531959533691 0.4735600054264069 22.22788047790527 1.407529950141907 C 23.17594909667969 1.856420040130615 24.09037017822266 2.412029981613159 24.94572067260742 3.058909893035889 C 25.79295921325684 3.699650049209595 26.58966064453125 4.435500144958496 27.31369018554688 5.245999813079834 C 28.0377197265625 6.056509971618652 28.69507026672363 6.948359966278076 29.26744079589844 7.896780014038086 C 29.84531021118164 8.854280471801758 30.34164047241211 9.877909660339355 30.74263954162598 10.93920993804932 C 31.57695960998535 13.14737033843994 32 15.49300956726074 32 17.91098022460938 C 32 17.94050979614258 31.99992942810059 17.97032928466797 31.99980926513672 17.99982070922852 L 31.99980926513672 18 Z"/></g><g class="b" transform="translate(6.681)"><circle class="c" cx="9" cy="9" r="9"/><circle class="e" cx="9" cy="9" r="7.5"/></g></g></svg>