<svg xmlns="http://www.w3.org/2000/svg" width="45" height="43" viewBox="0 0 45 43"><defs><style>.a{fill:none;stroke:#fff;stroke-width:3px;}</style></defs><g transform="translate(1.5 1.5)"><path class="a" d="M4206.443-5756.693v10.672l.126.264.259.263.432.207.636.111h.493l.888.345,9.479,5.286,3.027,1.451.617.129.067.014h1.644l6.4-1.14s3.546-.4,4.443-.992a29.668,29.668,0,0,0,2.406-1.942l3.2-2.692.882-1.153.321-.8v-.806l-.239-.23-.349-.186-.087-.19c0,.034.205-.173.205-.173l.47-.755v-.866l-.41-.731-.555-.411-1.1-.268-1.043.152-.6.236-.7.448-.947.788-1.123,1.151-.824.617-1.042.417-1.451.407-2.885.337a7.1,7.1,0,0,1-3.1-.225,40.982,40.982,0,0,1-3.833-1.744l1.72-.222,6.8.413,1.612.249a2.277,2.277,0,0,0,1.264-.662,5.5,5.5,0,0,0,.91-1.649l.181-1.066a3.861,3.861,0,0,0-.614-1.4,2.924,2.924,0,0,0-1.148-.807l-4.1-1.076-3.9-.5-1.166-.176-1.954-1.149a26.067,26.067,0,0,0-3.167-1.521,6.563,6.563,0,0,0-2.272-.458,10.362,10.362,0,0,0-3.516,0,47.691,47.691,0,0,0-5.417,1.241,3.06,3.06,0,0,0-.666.371A.786.786,0,0,0,4206.443-5756.693Z" transform="translate(-4199.763 5777.943)"/><path class="a" d="M4437.528-6015.264l2.087-1.489,2.042-2.58,1.345-2.741.723-3.026v-2.79l-.487-2.9-1.988-4.091-2.725-2.8-2.726-1.675-2.286-.667-1.9-.408h-2.385l-2.784.258-2.885,1.231-2.145,1.439-1.776,1.586-1.539,2.153-1.051,2.166-.663,2.242-.18,2.312v1.935l.552,2.354,1.342.282,1.539.573,1.776.906,1.595.758,2.082.466h1.556v-3.687H4422.2l-1.353-.655-.83-1-.38-1.337v-1.178l.835-1.434,1.086-.715,1.247-.306h3.84v-4.261l.7-1.578.987-.743c0,.036,1.224-.412,1.224-.412h1.17l1.169.621.907.847.478,1.266v4.261h4.241l1.193.448.674.572.6.731.178.7.152.813-.152,1.125-.558,1.006-.567.567-.831.488-1.032.167h-3.9v4.115l-.147.636.885.385,1.329.476.952.693.7.83Z" transform="translate(-4402.728 6040.423)"/><path class="a" d="M4099.287-5771.093v15.474a1.628,1.628,0,0,0,.161.478c.109.174.115.134.276.216a1.37,1.37,0,0,0,.367.111h4.042a1.088,1.088,0,0,0,.36-.111c.129-.082.06-.042.155-.216s.226-.478.226-.478l-.1-15.474a2.94,2.94,0,0,0-.342-.286,1.171,1.171,0,0,0-.3-.148H4099.9a1.048,1.048,0,0,0-.306.148A2.088,2.088,0,0,0,4099.287-5771.093Z" transform="translate(-4099.287 5789.771)"/></g></svg>