<svg xmlns="http://www.w3.org/2000/svg" width="61.937" height="88.568" viewBox="0 0 61.937 88.568">
  <path id="Path_2" data-name="Path 2" d="M-870.465,1102.253c11.932-11.739,21.882-16.264,21.882-16.264s11.931-7.378,13.6-10.734-4.332,13.1-8.472,15.169,4.849-.783,6.313-3.74,8.664-12.612,7.777-16.559,2.661,6.313,0,11.237,1.375,2.454-.887,4.628,5.825-3.238,6.017-10.734.68-6.713-.991-14.1,4.657,6.017,4.347,8.974-4.051,16.071-1.981,19.221,7.792,11.222,10.157,12.907,2.573,3.548,0,5.027-6.609,1.981-6.9,3.652,3.164,6.712,2.469,4.835c-.332-.9-1.154-1.471,0,0,1.057,1.345,4.249,3.948,2.706,3.593-1.227-.282.346,1.471-2.011,1.671-2.941.249-8.782-.843-8.782-.843s5.432.516,8.087,1.922c.667.352.577,1.518.695,1.922.488,1.671-7.7,5.042-8.782,6.121s0,10.941,0,10.941-8.856,4.051-16.751,1.582-15.894-5.234-22.089,2.158c-2.484,2.964,1.641-4.5.695-13.2-.55-5.06.64-10.683-.695-15.864A44.6,44.6,0,0,0-870.465,1102.253Z" transform="translate(871.783 -1057.929)" fill="rgba(251,211,233,0.91)" stroke="#700f4d" stroke-width="2"/>
</svg>
